<?xml version="1.0" standalone="no"?>
<!DOCTYPE svg PUBLIC "-//W3C//DTD SVG 20010904//EN"
 "http://www.w3.org/TR/2001/REC-SVG-20010904/DTD/svg10.dtd">
<svg version="1.0" xmlns="http://www.w3.org/2000/svg"
 width="500.000000pt" height="500.000000pt" viewBox="0 0 500.000000 500.000000"
 preserveAspectRatio="xMidYMid meet">

<g transform="translate(0.000000,500.000000) scale(0.100000,-0.100000)"
fill="#000000" stroke="none">
<path d="M2140 4153 c-67 -29 -100 -61 -100 -98 0 -24 7 -39 26 -54 39 -31
671 -238 685 -224 8 8 -40 52 -179 166 -262 214 -282 227 -346 226 -28 0 -67
-7 -86 -16z"/>
<path d="M1300 3577 c0 -15 15 -33 47 -57 62 -46 114 -115 167 -225 37 -75
489 -1199 848 -2108 l89 -227 49 0 c37 0 52 4 59 18 5 10 199 508 431 1107
232 600 435 1122 452 1162 57 138 144 247 226 285 33 15 42 24 42 43 l0 25
-210 0 -210 0 0 -24 c0 -17 9 -27 31 -36 84 -35 94 -152 29 -343 -38 -114
-711 -1860 -719 -1870 -6 -6 -559 1393 -768 1943 -66 172 -69 236 -13 265 21
11 30 23 30 40 l0 25 -290 0 -290 0 0 -23z"/>
</g>
</svg>
